<?xml version="1.0" standalone="no"?>
<!DOCTYPE svg PUBLIC "-//W3C//DTD SVG 20010904//EN"
 "http://www.w3.org/TR/2001/REC-SVG-20010904/DTD/svg10.dtd">
<svg version="1.0" xmlns="http://www.w3.org/2000/svg"
 width="901.000000pt" height="901.000000pt" viewBox="0 0 901.000000 901.000000"
 preserveAspectRatio="xMidYMid meet">
<metadata>
Created by potrace 1.11, written by Peter Selinger 2001-2013
</metadata>
<g transform="translate(0.000000,901.000000) scale(0.100000,-0.100000)"
fill="#000000" stroke="none">
<path d="M4220 8924 c-819 -58 -1558 -321 -2241 -800 -351 -246 -734 -619
-1004 -979 -383 -510 -658 -1116 -780 -1720 -61 -304 -70 -414 -70 -865 0
-445 6 -527 61 -830 156 -852 588 -1675 1204 -2290 692 -692 1585 -1120 2600
-1247 182 -23 727 -25 915 -5 398 44 816 150 1200 304 342 138 815 403 990
554 33 29 116 99 185 156 237 195 504 471 671 693 433 574 719 1244 819 1920
120 815 64 1528 -174 2212 -98 281 -293 654 -519 993 -533 798 -1359 1406
-2297 1690 -74 22 -148 45 -165 50 -124 37 -459 89 -710 110 -102 9 -150 17
-177 31 -33 18 -63 20 -245 23 -115 2 -233 2 -263 0z m830 -268 c333 -42 723
-137 920 -223 48 -21 253 -124 265 -133 6 -4 55 -31 110 -60 55 -29 119 -63
143 -76 23 -13 86 -47 140 -76 296 -157 442 -269 761 -582 205 -202 455 -516
622 -783 261 -417 455 -932 539 -1433 12 -69 29 -143 40 -165 13 -28 21 -82
28 -180 13 -179 15 -464 4 -479 -5 -6 -12 -85 -15 -176 -12 -304 -45 -510
-137 -850 -28 -102 -56 -210 -62 -240 -21 -104 -123 -363 -184 -468 -44 -74
-38 -38 10 67 71 155 54 133 -28 -35 -40 -83 -88 -168 -107 -190 -60 -67 -95
-117 -134 -189 -20 -38 -43 -77 -50 -85 -7 -8 -31 -50 -55 -92 -23 -43 -46
-78 -51 -78 -6 0 -8 -4 -5 -8 4 -7 -29 -64 -56 -97 -5 -5 -27 -35 -49 -65 -96
-130 -391 -437 -559 -581 -81 -69 -240 -189 -252 -189 -4 0 -8 5 -8 12 0 6 -7
4 -18 -5 -10 -10 -23 -17 -28 -17 -5 0 -20 -9 -34 -20 -14 -11 -31 -20 -37
-20 -7 0 -36 -18 -65 -40 -59 -44 -178 -110 -200 -110 -8 0 -41 -19 -73 -43
-108 -77 -162 -107 -297 -166 -307 -133 -682 -237 -1063 -295 -354 -54 -568
-69 -608 -43 -23 15 -50 18 -327 42 -410 34 -773 125 -1225 305 -180 71 -405
179 -496 236 -20 13 -40 20 -43 17 -3 -4 -6 -2 -6 3 0 5 -17 18 -37 29 -21 11
-40 22 -43 25 -3 3 -54 37 -115 75 -253 159 -388 268 -626 505 -335 333 -554
638 -765 1060 -85 172 -111 232 -171 405 -163 469 -222 787 -230 1250 l-5 271
41 99 c23 55 64 139 91 187 27 48 55 113 63 145 7 33 30 84 49 114 42 63 352
557 446 709 126 205 225 355 256 388 17 18 67 58 112 88 l81 56 13 86 c7 48
18 112 26 142 7 31 25 141 38 245 14 105 30 222 35 260 6 39 11 73 11 77 0 4
42 41 94 83 79 62 102 88 142 155 142 238 350 457 574 602 156 102 487 258
546 258 13 0 24 4 24 9 0 6 8 8 18 6 10 -2 40 2 67 8 39 10 50 16 50 32 0 17
19 26 110 56 61 20 171 51 245 68 74 18 144 37 155 41 62 27 332 72 532 90
152 13 717 4 863 -14z m2765 -1456 c10 -11 16 -20 13 -20 -3 0 -13 9 -23 20
-10 11 -16 20 -13 20 3 0 13 -9 23 -20z m40 -50 c10 -11 16 -20 13 -20 -3 0
-13 9 -23 20 -10 11 -16 20 -13 20 3 0 13 -9 23 -20z m74 -95 c47 -65 31 -56
-20 13 -23 31 -36 52 -28 45 8 -7 30 -33 48 -58z m52 -72 c13 -16 12 -17 -3
-4 -10 7 -18 15 -18 17 0 8 8 3 21 -13z m-213 -4988 c-14 -25 -216 -254 -247
-277 -15 -12 -15 -11 -1 6 8 11 29 34 45 51 17 17 57 64 90 103 33 40 63 72
67 72 4 0 8 4 8 10 0 9 40 60 47 60 2 0 -2 -11 -9 -25z m-58 -108 c0 -2 -10
-12 -22 -23 l-23 -19 19 23 c18 21 26 27 26 19z m-40 -50 c0 -2 -17 -19 -37
-38 l-38 -34 34 38 c33 34 41 42 41 34z m-107 -123 c-21 -25 -90 -94 -153
-153 -205 -193 -210 -190 -10 6 107 106 196 192 198 193 2 0 -14 -21 -35 -46z"/>
<path d="M8556 4003 c-4 -9 -9 -37 -12 -62 -2 -26 -9 -79 -14 -120 -6 -41 -8
-76 -6 -78 6 -7 47 268 41 275 -1 2 -6 -5 -9 -15z"/>
</g>
</svg>
